<mxfile host="65bd71144e">
    <diagram id="LUYgUR6mbUMBfp7TSvP_" name="第 1 页">
        <mxGraphModel dx="604" dy="445" grid="1" gridSize="10" guides="1" tooltips="1" connect="1" arrows="1" fold="1" page="1" pageScale="1" pageWidth="827" pageHeight="1169" math="0" shadow="0">
            <root>
                <mxCell id="0"/>
                <mxCell id="1" parent="0"/>
                <mxCell id="19" value="" style="edgeStyle=none;html=1;fontSize=25;exitX=1;exitY=1;exitDx=0;exitDy=0;entryX=0;entryY=0;entryDx=0;entryDy=0;" parent="1" source="2" target="18" edge="1">
                    <mxGeometry relative="1" as="geometry">
                        <mxPoint x="170" y="680" as="sourcePoint"/>
                    </mxGeometry>
                </mxCell>
                <mxCell id="22" value="1" style="edgeLabel;html=1;align=center;verticalAlign=middle;resizable=0;points=[];fontSize=25;" parent="19" vertex="1" connectable="0">
                    <mxGeometry x="-0.4" y="-2" relative="1" as="geometry">
                        <mxPoint x="8" y="-3" as="offset"/>
                    </mxGeometry>
                </mxCell>
                <mxCell id="25" value="" style="edgeStyle=none;html=1;fontSize=25;exitX=1;exitY=0.5;exitDx=0;exitDy=0;entryX=0;entryY=0.5;entryDx=0;entryDy=0;" parent="1" source="29" target="30" edge="1">
                    <mxGeometry relative="1" as="geometry">
                        <mxPoint x="300" y="340" as="sourcePoint"/>
                        <mxPoint x="197.2881355932202" y="206.77966101694915" as="targetPoint"/>
                    </mxGeometry>
                </mxCell>
                <mxCell id="27" value="1" style="edgeLabel;html=1;align=center;verticalAlign=middle;resizable=0;points=[];fontSize=25;" parent="25" vertex="1" connectable="0">
                    <mxGeometry x="0.2167" y="-1" relative="1" as="geometry">
                        <mxPoint x="-8" y="-1" as="offset"/>
                    </mxGeometry>
                </mxCell>
                <mxCell id="2" value="用户" style="rounded=0;whiteSpace=wrap;html=1;fontSize=25;fontStyle=1" parent="1" vertex="1">
                    <mxGeometry x="40" y="370" width="120" height="60" as="geometry"/>
                </mxCell>
                <mxCell id="3" value="账户" style="rounded=0;whiteSpace=wrap;html=1;fontSize=25;fontStyle=1" parent="1" vertex="1">
                    <mxGeometry x="40" y="566" width="120" height="60" as="geometry"/>
                </mxCell>
                <mxCell id="7" value="公告" style="rounded=0;whiteSpace=wrap;html=1;fontSize=25;fontStyle=1" parent="1" vertex="1">
                    <mxGeometry x="350" y="170" width="120" height="60" as="geometry"/>
                </mxCell>
                <mxCell id="9" value="会话" style="rounded=0;whiteSpace=wrap;html=1;fontSize=25;fontStyle=1" parent="1" vertex="1">
                    <mxGeometry x="350" y="566" width="120" height="60" as="geometry"/>
                </mxCell>
                <mxCell id="13" value="" style="edgeStyle=none;html=1;fontSize=25;exitX=0.5;exitY=1;exitDx=0;exitDy=0;" parent="1" source="11" target="3" edge="1">
                    <mxGeometry relative="1" as="geometry"/>
                </mxCell>
                <mxCell id="14" value="N" style="edgeLabel;html=1;align=center;verticalAlign=middle;resizable=0;points=[];fontSize=25;" parent="13" vertex="1" connectable="0">
                    <mxGeometry x="0.3333" y="-3" relative="1" as="geometry">
                        <mxPoint x="4" y="-15" as="offset"/>
                    </mxGeometry>
                </mxCell>
                <mxCell id="11" value="拥有" style="rhombus;whiteSpace=wrap;html=1;fontSize=25;fontStyle=1" parent="1" vertex="1">
                    <mxGeometry x="55" y="470" width="90" height="60" as="geometry"/>
                </mxCell>
                <mxCell id="20" value="" style="edgeStyle=none;html=1;fontSize=25;exitX=1;exitY=1;exitDx=0;exitDy=0;entryX=0;entryY=0;entryDx=0;entryDy=0;" parent="1" source="18" target="9" edge="1">
                    <mxGeometry relative="1" as="geometry"/>
                </mxCell>
                <mxCell id="23" value="N" style="edgeLabel;html=1;align=center;verticalAlign=middle;resizable=0;points=[];fontSize=25;" parent="20" vertex="1" connectable="0">
                    <mxGeometry x="-0.5786" y="-1" relative="1" as="geometry">
                        <mxPoint x="10" y="-1" as="offset"/>
                    </mxGeometry>
                </mxCell>
                <mxCell id="18" value="创建" style="rhombus;whiteSpace=wrap;html=1;fontSize=25;fontStyle=1" parent="1" vertex="1">
                    <mxGeometry x="210" y="470" width="90" height="60" as="geometry"/>
                </mxCell>
                <mxCell id="26" value="" style="edgeStyle=none;html=1;fontSize=25;exitX=1;exitY=0.5;exitDx=0;exitDy=0;" parent="1" source="30" target="7" edge="1">
                    <mxGeometry relative="1" as="geometry">
                        <mxPoint x="269.9999999999998" y="220" as="sourcePoint"/>
                    </mxGeometry>
                </mxCell>
                <mxCell id="28" value="N" style="edgeLabel;html=1;align=center;verticalAlign=middle;resizable=0;points=[];fontSize=25;" parent="26" vertex="1" connectable="0">
                    <mxGeometry x="0.2833" relative="1" as="geometry">
                        <mxPoint x="-11" as="offset"/>
                    </mxGeometry>
                </mxCell>
                <mxCell id="29" value="管理员" style="rounded=0;whiteSpace=wrap;html=1;fontSize=25;fontStyle=1" vertex="1" parent="1">
                    <mxGeometry x="40" y="170" width="120" height="60" as="geometry"/>
                </mxCell>
                <mxCell id="30" value="撰写" style="rhombus;whiteSpace=wrap;html=1;fontSize=25;fontStyle=1" vertex="1" parent="1">
                    <mxGeometry x="210" y="170" width="90" height="60" as="geometry"/>
                </mxCell>
                <mxCell id="31" value="" style="edgeStyle=none;html=1;fontSize=25;exitX=0.5;exitY=1;exitDx=0;exitDy=0;entryX=0.5;entryY=0;entryDx=0;entryDy=0;" edge="1" parent="1" target="35" source="29">
                    <mxGeometry relative="1" as="geometry">
                        <mxPoint x="160" y="289.9999999999999" as="sourcePoint"/>
                        <mxPoint x="197.2881355932202" y="296.77966101694915" as="targetPoint"/>
                    </mxGeometry>
                </mxCell>
                <mxCell id="32" value="1" style="edgeLabel;html=1;align=center;verticalAlign=middle;resizable=0;points=[];fontSize=20;" vertex="1" connectable="0" parent="31">
                    <mxGeometry x="0.2167" y="-1" relative="1" as="geometry">
                        <mxPoint y="-10" as="offset"/>
                    </mxGeometry>
                </mxCell>
                <mxCell id="33" value="" style="edgeStyle=none;html=1;fontSize=25;exitX=0.5;exitY=1;exitDx=0;exitDy=0;entryX=0.5;entryY=0;entryDx=0;entryDy=0;" edge="1" parent="1" source="35" target="2">
                    <mxGeometry relative="1" as="geometry">
                        <mxPoint x="269.9999999999998" y="310" as="sourcePoint"/>
                        <mxPoint x="350" y="289.9999999999999" as="targetPoint"/>
                    </mxGeometry>
                </mxCell>
                <mxCell id="34" value="N" style="edgeLabel;html=1;align=center;verticalAlign=middle;resizable=0;points=[];fontSize=25;" vertex="1" connectable="0" parent="33">
                    <mxGeometry x="0.2833" relative="1" as="geometry">
                        <mxPoint y="-13" as="offset"/>
                    </mxGeometry>
                </mxCell>
                <mxCell id="35" value="管理" style="rhombus;whiteSpace=wrap;html=1;fontSize=25;fontStyle=1" vertex="1" parent="1">
                    <mxGeometry x="55" y="270" width="90" height="60" as="geometry"/>
                </mxCell>
                <mxCell id="36" value="" style="edgeStyle=none;html=1;fontSize=25;exitX=0.5;exitY=1;exitDx=0;exitDy=0;entryX=0.5;entryY=0;entryDx=0;entryDy=0;" edge="1" parent="1" source="2" target="11">
                    <mxGeometry relative="1" as="geometry">
                        <mxPoint x="110.00000000000011" y="240" as="sourcePoint"/>
                        <mxPoint x="110.00000000000011" y="280" as="targetPoint"/>
                    </mxGeometry>
                </mxCell>
                <mxCell id="37" value="1" style="edgeLabel;html=1;align=center;verticalAlign=middle;resizable=0;points=[];fontSize=20;" vertex="1" connectable="0" parent="36">
                    <mxGeometry x="0.2167" y="-1" relative="1" as="geometry">
                        <mxPoint y="-10" as="offset"/>
                    </mxGeometry>
                </mxCell>
                <mxCell id="38" value="游戏" style="rounded=0;whiteSpace=wrap;html=1;fontSize=25;fontStyle=1" vertex="1" parent="1">
                    <mxGeometry x="350" y="371" width="120" height="60" as="geometry"/>
                </mxCell>
                <mxCell id="39" value="" style="edgeStyle=none;html=1;fontSize=25;entryX=0;entryY=0;entryDx=0;entryDy=0;exitX=1;exitY=1;exitDx=0;exitDy=0;" edge="1" parent="1" target="43" source="29">
                    <mxGeometry relative="1" as="geometry">
                        <mxPoint x="250" y="250" as="sourcePoint"/>
                    </mxGeometry>
                </mxCell>
                <mxCell id="40" value="1" style="edgeLabel;html=1;align=center;verticalAlign=middle;resizable=0;points=[];fontSize=25;" vertex="1" connectable="0" parent="39">
                    <mxGeometry x="-0.4" y="-2" relative="1" as="geometry">
                        <mxPoint x="2" y="-6" as="offset"/>
                    </mxGeometry>
                </mxCell>
                <mxCell id="41" value="" style="edgeStyle=none;html=1;fontSize=25;exitX=1;exitY=1;exitDx=0;exitDy=0;entryX=0;entryY=0;entryDx=0;entryDy=0;" edge="1" parent="1" source="43" target="38">
                    <mxGeometry relative="1" as="geometry">
                        <mxPoint x="350" y="310" as="targetPoint"/>
                    </mxGeometry>
                </mxCell>
                <mxCell id="42" value="N" style="edgeLabel;html=1;align=center;verticalAlign=middle;resizable=0;points=[];fontSize=25;" vertex="1" connectable="0" parent="41">
                    <mxGeometry x="-0.5786" y="-1" relative="1" as="geometry">
                        <mxPoint x="29" y="-2" as="offset"/>
                    </mxGeometry>
                </mxCell>
                <mxCell id="43" value="维护" style="rhombus;whiteSpace=wrap;html=1;fontSize=25;fontStyle=1" vertex="1" parent="1">
                    <mxGeometry x="210" y="270" width="90" height="60" as="geometry"/>
                </mxCell>
                <mxCell id="44" value="" style="edgeStyle=none;html=1;fontSize=25;exitX=1;exitY=0.5;exitDx=0;exitDy=0;" edge="1" parent="1" target="48" source="2">
                    <mxGeometry relative="1" as="geometry">
                        <mxPoint x="160" y="430" as="sourcePoint"/>
                    </mxGeometry>
                </mxCell>
                <mxCell id="45" value="1" style="edgeLabel;html=1;align=center;verticalAlign=middle;resizable=0;points=[];fontSize=25;" vertex="1" connectable="0" parent="44">
                    <mxGeometry x="-0.4" y="-2" relative="1" as="geometry">
                        <mxPoint x="8" y="-3" as="offset"/>
                    </mxGeometry>
                </mxCell>
                <mxCell id="46" value="" style="edgeStyle=none;html=1;fontSize=25;exitX=1;exitY=0.5;exitDx=0;exitDy=0;entryX=0;entryY=0.5;entryDx=0;entryDy=0;" edge="1" parent="1" source="48" target="38">
                    <mxGeometry relative="1" as="geometry">
                        <mxPoint x="350" y="430" as="targetPoint"/>
                    </mxGeometry>
                </mxCell>
                <mxCell id="47" value="N" style="edgeLabel;html=1;align=center;verticalAlign=middle;resizable=0;points=[];fontSize=25;" vertex="1" connectable="0" parent="46">
                    <mxGeometry x="-0.5786" y="-1" relative="1" as="geometry">
                        <mxPoint x="10" y="-1" as="offset"/>
                    </mxGeometry>
                </mxCell>
                <mxCell id="48" value="创建" style="rhombus;whiteSpace=wrap;html=1;fontSize=25;fontStyle=1" vertex="1" parent="1">
                    <mxGeometry x="210" y="370" width="90" height="60" as="geometry"/>
                </mxCell>
            </root>
        </mxGraphModel>
    </diagram>
</mxfile>